# xmcd
#
# Track frame offsets: 
#        150
#        31182
#        52572
#        72267
#        94772
#        126532
#        146240
#        177882
#        200652
#        225462
#
# Disc length: 3367 seconds
#
# Revision: 0
# Processed by: cddbd v1.5.2PL0 Copyright (c) Steve Scherf et al.
# Submitted via: ExactAudioCopy v1.0b3
#
DISCID=880d250a
DTITLE=Various Artist - Mua Bui 7
DYEAR=1900
DGENRE=
TTITLE0=Dinh Van - Thuong qua que huong oi
TTITLE1=Tai Linh - Tan vo
TTITLE2=Che Thanh - Luc Tieu Phung
TTITLE3=Thanh Loc, Hong Van - LK lay anh em di lay chong, Ba ran ba ri
TTITLE4=Dinh Van - Ben cau ngo mong
TTITLE5=Tai Linh - Huong toc ma non
TTITLE6=Minh Tuyet, Cam Ly, Ha Phuong - LK Ly cay da, Ly muoi thuong
TTITLE7=Thuy Trang - Ngau hung ru con
TTITLE8=Kim Tu Long - Tu Lua vui Xuan
TTITLE9=Minh Tuyet, Tu Chau - Sao anh chang den
EXTD=
EXTT0=
EXTT1=
EXTT2=
EXTT3=
EXTT4=
EXTT5=
EXTT6=
EXTT7=
EXTT8=
EXTT9=
PLAYORDER=
